<svg aria-hidden="true" style="position: absolute; width: 0; height: 0; overflow: hidden;" version="1.1" xmlns="http://www.w3.org/2000/svg" xmlns:xlink="http://www.w3.org/1999/xlink">
<defs>
<symbol id="play" viewBox="0 0 32 32">
<path d="M16.145 0.159c-8.699 0-15.775 7.077-15.775 15.775s7.076 15.775 15.775 15.775 15.775-7.077 15.775-15.775c0-8.698-7.076-15.775-15.775-15.775zM16.145 30.394c-7.973 0-14.46-6.487-14.46-14.46s6.487-14.46 14.46-14.46c7.973 0 14.46 6.487 14.46 14.46s-6.487 14.46-14.46 14.46z"></path>
<path d="M22.416 15.381l-9.202-5.916c-0.202-0.132-0.462-0.139-0.67-0.024-0.212 0.116-0.343 0.336-0.343 0.577v11.831c0 0.241 0.131 0.462 0.343 0.577 0.098 0.053 0.207 0.080 0.315 0.080 0.123 0 0.248-0.035 0.356-0.105l9.202-5.916c0.187-0.121 0.302-0.329 0.302-0.553s-0.114-0.432-0.302-0.553zM13.516 20.645v-9.423l7.329 4.711-7.329 4.711z"></path>
</symbol>
<symbol id="twitter" viewBox="0 0 26 28">
<path d="M25.312 6.375c-0.688 1-1.547 1.891-2.531 2.609 0.016 0.219 0.016 0.438 0.016 0.656 0 6.672-5.078 14.359-14.359 14.359-2.859 0-5.516-0.828-7.75-2.266 0.406 0.047 0.797 0.063 1.219 0.063 2.359 0 4.531-0.797 6.266-2.156-2.219-0.047-4.078-1.5-4.719-3.5 0.313 0.047 0.625 0.078 0.953 0.078 0.453 0 0.906-0.063 1.328-0.172-2.312-0.469-4.047-2.5-4.047-4.953v-0.063c0.672 0.375 1.453 0.609 2.281 0.641-1.359-0.906-2.25-2.453-2.25-4.203 0-0.938 0.25-1.797 0.688-2.547 2.484 3.062 6.219 5.063 10.406 5.281-0.078-0.375-0.125-0.766-0.125-1.156 0-2.781 2.25-5.047 5.047-5.047 1.453 0 2.766 0.609 3.687 1.594 1.141-0.219 2.234-0.641 3.203-1.219-0.375 1.172-1.172 2.156-2.219 2.781 1.016-0.109 2-0.391 2.906-0.781z"></path>
</symbol>
<symbol id="facebook" viewBox="0 0 16 28">
<path d="M14.984 0.187v4.125h-2.453c-1.922 0-2.281 0.922-2.281 2.25v2.953h4.578l-0.609 4.625h-3.969v11.859h-4.781v-11.859h-3.984v-4.625h3.984v-3.406c0-3.953 2.422-6.109 5.953-6.109 1.687 0 3.141 0.125 3.563 0.187z"></path>
</symbol>
<symbol id="instagram" viewBox="0 0 24 28">
<path d="M16 14c0-2.203-1.797-4-4-4s-4 1.797-4 4 1.797 4 4 4 4-1.797 4-4zM18.156 14c0 3.406-2.75 6.156-6.156 6.156s-6.156-2.75-6.156-6.156 2.75-6.156 6.156-6.156 6.156 2.75 6.156 6.156zM19.844 7.594c0 0.797-0.641 1.437-1.437 1.437s-1.437-0.641-1.437-1.437 0.641-1.437 1.437-1.437 1.437 0.641 1.437 1.437zM12 4.156c-1.75 0-5.5-0.141-7.078 0.484-0.547 0.219-0.953 0.484-1.375 0.906s-0.688 0.828-0.906 1.375c-0.625 1.578-0.484 5.328-0.484 7.078s-0.141 5.5 0.484 7.078c0.219 0.547 0.484 0.953 0.906 1.375s0.828 0.688 1.375 0.906c1.578 0.625 5.328 0.484 7.078 0.484s5.5 0.141 7.078-0.484c0.547-0.219 0.953-0.484 1.375-0.906s0.688-0.828 0.906-1.375c0.625-1.578 0.484-5.328 0.484-7.078s0.141-5.5-0.484-7.078c-0.219-0.547-0.484-0.953-0.906-1.375s-0.828-0.688-1.375-0.906c-1.578-0.625-5.328-0.484-7.078-0.484zM24 14c0 1.656 0.016 3.297-0.078 4.953-0.094 1.922-0.531 3.625-1.937 5.031s-3.109 1.844-5.031 1.937c-1.656 0.094-3.297 0.078-4.953 0.078s-3.297 0.016-4.953-0.078c-1.922-0.094-3.625-0.531-5.031-1.937s-1.844-3.109-1.937-5.031c-0.094-1.656-0.078-3.297-0.078-4.953s-0.016-3.297 0.078-4.953c0.094-1.922 0.531-3.625 1.937-5.031s3.109-1.844 5.031-1.937c1.656-0.094 3.297-0.078 4.953-0.078s3.297-0.016 4.953 0.078c1.922 0.094 3.625 0.531 5.031 1.937s1.844 3.109 1.937 5.031c0.094 1.656 0.078 3.297 0.078 4.953z"></path>
</symbol>
<symbol id="apple" viewBox="0 0 28 32">
<path fill="#fff" style="fill: var(--color1, #fff)" d="M9.411 31.48c-4.962-0.026-9.067-9.379-9.067-14.143 0-7.781 6.321-9.484 8.758-9.484 1.098 0 2.27 0.398 3.304 0.75 0.723 0.246 1.471 0.499 1.887 0.499 0.249 0 0.836-0.216 1.354-0.405 1.105-0.406 2.479-0.911 4.080-0.911 0.003 0 0.007 0 0.009 0 1.195 0 4.819 0.242 6.998 3.263l0.51 0.708-0.735 0.512c-1.049 0.731-2.964 2.065-2.964 4.706 0 3.128 2.168 4.332 3.21 4.91 0.46 0.255 0.936 0.519 0.936 1.095 0 0.376-3.251 8.452-7.972 8.452-1.155 0-1.972-0.321-2.692-0.603-0.729-0.286-1.357-0.533-2.396-0.533-0.527 0-1.192 0.23-1.897 0.474-0.963 0.332-2.054 0.709-3.291 0.709h-0.032z"></path>
<path fill="#fff" style="fill: var(--color1, #fff)" d="M20.226 0.695c0.123 4.093-3.047 6.933-6.214 6.755-0.522-3.267 3.166-6.755 6.214-6.755z"></path>
</symbol>
<symbol id="app-store" viewBox="0 0 104 32">
<path fill="#fff" style="fill: var(--color1, #fff)" d="M6.513 8.464h1.995l-2.713-7.368h-2.326l-2.713 7.368h1.995l0.399-1.158h2.964l0.399 1.158zM3.698 5.728l0.935-2.705 0.935 2.705h-1.87z"></path>
<path fill="#fff" style="fill: var(--color1, #fff)" d="M12.546 3.201l-1.185 3.337-1.186-3.337h-1.892l2.109 5.263h1.938l2.109-5.263h-1.892z"></path>
<path fill="#fff" style="fill: var(--color1, #fff)" d="M18.981 3.201v0.495c-0.376-0.4-0.935-0.642-1.699-0.642-1.493 0-2.725 1.21-2.725 2.779s1.231 2.779 2.725 2.779c0.764 0 1.322-0.242 1.699-0.642v0.495h1.71v-5.263h-1.71zM17.624 7.117c-0.787 0-1.357-0.495-1.357-1.284s0.57-1.284 1.357-1.284c0.787 0 1.357 0.495 1.357 1.284s-0.57 1.284-1.357 1.284z"></path>
<path fill="#fff" style="fill: var(--color1, #fff)" d="M21.945 8.464h1.71v-7.684h-1.71v7.684z"></path>
<path fill="#fff" style="fill: var(--color1, #fff)" d="M25.761 2.738c0.559 0 1.026-0.432 1.026-0.947s-0.467-0.947-1.026-0.947c-0.559 0-1.026 0.432-1.026 0.947s0.467 0.947 1.026 0.947zM24.906 8.464h1.71v-5.263h-1.71v5.263z"></path>
<path fill="#fff" style="fill: var(--color1, #fff)" d="M31.276 3.054c-0.764 0-1.322 0.242-1.699 0.642v-2.6h-1.71v7.368h1.71v-0.495c0.376 0.4 0.935 0.642 1.699 0.642 1.493 0 2.725-1.21 2.725-2.779s-1.231-2.779-2.725-2.779zM30.934 7.117c-0.787 0-1.357-0.495-1.357-1.284s0.57-1.284 1.357-1.284c0.787 0 1.357 0.495 1.357 1.284s-0.57 1.284-1.357 1.284z"></path>
<path fill="#fff" style="fill: var(--color1, #fff)" d="M34.97 8.464h1.71v-7.684h-1.71v7.684z"></path>
<path fill="#fff" style="fill: var(--color1, #fff)" d="M39.459 6.465h4.047c0.046-0.2 0.068-0.41 0.068-0.632 0-1.589-1.231-2.779-2.896-2.779-1.801 0-3.032 1.21-3.032 2.779s1.208 2.779 3.158 2.779c1.083 0 1.927-0.368 2.485-1.084l-1.368-0.726c-0.228 0.232-0.627 0.4-1.094 0.4-0.627 0-1.151-0.189-1.368-0.737zM39.425 5.286c0.16-0.537 0.593-0.832 1.243-0.832 0.513 0 1.026 0.221 1.208 0.832h-2.451z"></path>
<path fill="#fff" style="fill: var(--color1, #fff)" d="M50.13 8.612c1.676 0 3.021-1.21 3.021-2.779s-1.345-2.779-3.021-2.779c-1.676 0-3.021 1.21-3.021 2.779s1.345 2.779 3.021 2.779zM50.13 7.075c-0.741 0-1.311-0.495-1.311-1.242s0.57-1.242 1.311-1.242c0.741 0 1.311 0.495 1.311 1.242s-0.57 1.242-1.311 1.242z"></path>
<path fill="#fff" style="fill: var(--color1, #fff)" d="M57.458 3.054c-0.752 0-1.322 0.253-1.63 0.642v-0.495h-1.71v5.263h1.71v-2.874c0-0.747 0.433-1.084 1.060-1.084 0.547 0 0.992 0.305 0.992 0.958v3h1.71v-3.231c0-1.421-0.98-2.179-2.132-2.179z"></path>
<path fill="#fff" style="fill: var(--color1, #fff)" d="M66.954 4.717v-1.516h-1.174v-1.474l-1.71 0.474v1h-0.912v1.516h0.912v1.863c0 1.474 0.65 2.095 2.884 1.884v-1.431c-0.752 0.042-1.174 0-1.174-0.453v-1.863h1.174z"></path>
<path fill="#fff" style="fill: var(--color1, #fff)" d="M71.263 3.054c-0.752 0-1.322 0.253-1.63 0.642v-2.6h-1.71v7.368h1.71v-2.874c0-0.747 0.433-1.084 1.060-1.084 0.547 0 0.992 0.305 0.992 0.958v3h1.71v-3.231c0-1.421-0.98-2.179-2.132-2.179z"></path>
<path fill="#fff" style="fill: var(--color1, #fff)" d="M76.096 6.465h4.047c0.046-0.2 0.068-0.41 0.068-0.632 0-1.589-1.231-2.779-2.896-2.779-1.801 0-3.032 1.21-3.032 2.779s1.208 2.779 3.158 2.779c1.083 0 1.927-0.368 2.485-1.084l-1.368-0.726c-0.228 0.232-0.627 0.4-1.094 0.4-0.627 0-1.151-0.189-1.368-0.737zM76.062 5.286c0.16-0.537 0.593-0.832 1.243-0.832 0.513 0 1.026 0.221 1.208 0.832h-2.451z"></path>
<path fill="#fff" style="fill: var(--color1, #fff)" d="M10.351 27.762h3.325l-4.522-12.28h-3.876l-4.522 12.28h3.325l0.665-1.93h4.94l0.665 1.93zM5.658 23.201l1.558-4.509 1.558 4.509h-3.116z"></path>
<path fill="#fff" style="fill: var(--color1, #fff)" d="M20.396 18.745c-1.273 0-2.204 0.404-2.831 1.070v-0.825h-2.85v12.28h2.85v-4.333c0.627 0.667 1.558 1.070 2.831 1.070 2.489 0 4.541-2.017 4.541-4.631s-2.052-4.631-4.541-4.631zM19.826 25.516c-1.311 0-2.261-0.825-2.261-2.14s0.95-2.14 2.261-2.14 2.261 0.824 2.261 2.14c0 1.316-0.95 2.14-2.261 2.14z"></path>
<path fill="#fff" style="fill: var(--color1, #fff)" d="M32.233 18.745c-1.273 0-2.204 0.404-2.831 1.070v-0.825h-2.85v12.28h2.85v-4.333c0.627 0.667 1.558 1.070 2.831 1.070 2.489 0 4.541-2.017 4.541-4.631s-2.052-4.631-4.541-4.631zM31.664 25.516c-1.311 0-2.261-0.825-2.261-2.14s0.95-2.14 2.261-2.14 2.261 0.824 2.261 2.14c0 1.316-0.95 2.14-2.261 2.14z"></path>
<path fill="#fff" style="fill: var(--color1, #fff)" d="M38.39 27.762h2.85v-12.806h-2.85v12.806z"></path>
<path fill="#fff" style="fill: var(--color1, #fff)" d="M45.872 24.429h6.745c0.076-0.333 0.114-0.684 0.114-1.053 0-2.649-2.052-4.631-4.826-4.631-3.002 0-5.054 2.018-5.054 4.631s2.014 4.631 5.263 4.631c1.805 0 3.211-0.614 4.142-1.807l-2.28-1.21c-0.38 0.386-1.045 0.667-1.824 0.667-1.045 0-1.919-0.316-2.28-1.228zM45.815 22.464c0.266-0.895 0.988-1.386 2.071-1.386 0.855 0 1.71 0.368 2.014 1.386h-4.085z"></path>
<path fill="#fff" style="fill: var(--color1, #fff)" d="M63.846 28.007c2.888 0 4.94-1.403 4.94-3.772 0-2.596-2.261-3.245-4.275-3.807-2.071-0.579-2.394-0.965-2.394-1.526 0-0.491 0.475-0.93 1.425-0.93 1.216 0 1.843 0.544 2.299 1.421l2.565-1.386c-0.969-1.807-2.679-2.772-4.864-2.772-2.299 0-4.465 1.368-4.465 3.737 0 2.351 1.938 3.228 3.914 3.737 1.995 0.509 2.755 0.807 2.755 1.561 0 0.474-0.361 1-1.805 1-1.501 0-2.318-0.684-2.793-1.702l-2.622 1.403c0.741 1.807 2.527 3.035 5.32 3.035z"></path>
<path fill="#fff" style="fill: var(--color1, #fff)" d="M75.499 21.516v-2.526h-1.957v-2.456l-2.85 0.789v1.667h-1.52v2.526h1.52v3.105c0 2.456 1.083 3.491 4.807 3.14v-2.386c-1.254 0.070-1.957 0-1.957-0.754v-3.105h1.957z"></path>
<path fill="#fff" style="fill: var(--color1, #fff)" d="M81.487 28.007c2.793 0 5.035-2.018 5.035-4.631s-2.242-4.631-5.035-4.631-5.035 2.017-5.035 4.631c0 2.614 2.242 4.631 5.035 4.631zM81.487 25.446c-1.235 0-2.185-0.824-2.185-2.070s0.95-2.070 2.185-2.070c1.235 0 2.185 0.825 2.185 2.070s-0.95 2.070-2.185 2.070z"></path>
<path fill="#fff" style="fill: var(--color1, #fff)" d="M90.984 20.552v-1.561h-2.85v8.771h2.85v-3.965c0-1.737 1.672-2.175 2.85-2v-2.982c-1.197 0-2.47 0.561-2.85 1.737z"></path>
<path fill="#fff" style="fill: var(--color1, #fff)" d="M97.433 24.429h6.745c0.075-0.333 0.114-0.684 0.114-1.053 0-2.649-2.053-4.631-4.826-4.631-3.001 0-5.054 2.018-5.054 4.631s2.014 4.631 5.263 4.631c1.805 0 3.211-0.614 4.142-1.807l-2.28-1.21c-0.38 0.386-1.046 0.667-1.824 0.667-1.046 0-1.919-0.316-2.28-1.228zM97.377 22.464c0.265-0.895 0.987-1.386 2.071-1.386 0.855 0 1.71 0.368 2.014 1.386h-4.085z"></path>
</symbol>
<symbol id="google-play" viewBox="0 0 34 32">
<path fill="#2196f3" style="fill: var(--color2, #2196f3)" d="M19.321 15.961l-16.636 14.791c-0.779-0.492-1.242-1.309-1.233-2.18v-25.221c-0.008-0.871 0.454-1.689 1.233-2.18l16.636 14.791z"></path>
<path fill="#4caf50" style="fill: var(--color3, #4caf50)" d="M25.142 10.794l-5.821 5.166-16.636-14.791c0.063-0.045 0.128-0.087 0.196-0.125 0.879-0.492 1.977-0.508 2.873-0.042l19.388 9.791z"></path>
<path fill="#f0bb1f" style="fill: var(--color4, #f0bb1f)" d="M32.197 15.961c0.011 0.983-0.568 1.892-1.504 2.361l-5.55 2.805-5.821-5.166 5.821-5.166 5.55 2.805c0.936 0.469 1.515 1.378 1.504 2.361z"></path>
<path fill="#f15a2b" style="fill: var(--color5, #f15a2b)" d="M25.142 21.127l-19.388 9.791c-0.897 0.459-1.992 0.443-2.873-0.042-0.068-0.038-0.133-0.080-0.196-0.125l16.636-14.791 5.821 5.166z"></path>
</symbol>
<symbol id="play-market" viewBox="0 0 125 32">
<path fill="#fff" style="fill: var(--color1, #fff)" d="M13.652 5.607h-6.478v2.386h3.451c-0.461 1.142-1.587 1.841-3.304 1.841-2.51 0-4.060-1.483-4.060-3.511 0-2.096 1.624-3.579 3.802-3.579 1.458 0 2.621 0.614 3.156 1.397l2.51-1.329c-1.089-1.602-3.175-2.727-5.648-2.727-3.802 0-6.774 2.761-6.774 6.22 0 3.425 2.916 6.186 6.977 6.186 3.617 0 6.367-2.215 6.367-5.862v-1.022z"></path>
<path fill="#fff" style="fill: var(--color1, #fff)" d="M17.347 9.629v-2.113h4.614v-2.59h-4.614v-1.977h5.076v-2.624h-8.029v11.929h8.121v-2.624h-5.168z"></path>
<path fill="#fff" style="fill: var(--color1, #fff)" d="M31.933 0.324h-9.598v2.624h3.322v9.305h2.953v-9.305h3.322v-2.624z"></path>
<path fill="#fff" style="fill: var(--color1, #fff)" d="M35.994 0.324v11.929h2.953v-11.929h-2.953z"></path>
<path fill="#fff" style="fill: var(--color1, #fff)" d="M48.919 0.324h-9.598v2.624h3.322v9.305h2.953v-9.305h3.322v-2.624z"></path>
<path fill="#fff" style="fill: var(--color1, #fff)" d="M59.145 12.492c3.71 0 6.718-2.693 6.718-6.203s-3.008-6.203-6.718-6.203c-3.71 0-6.718 2.693-6.718 6.203s3.008 6.203 6.718 6.203zM59.145 9.833c-2.104 0-3.765-1.414-3.765-3.545s1.661-3.545 3.765-3.545c2.104 0 3.765 1.414 3.765 3.545s-1.661 3.545-3.765 3.545z"></path>
<path fill="#fff" style="fill: var(--color1, #fff)" d="M73.801 0.324v6.476l-4.983-6.476h-2.215v11.929h2.953v-6.476l4.983 6.476h2.215v-11.929h-2.953z"></path>
<path fill="#fff" style="fill: var(--color1, #fff)" d="M13.652 25.869v0.46c0 1.488-0.572 2.744-1.716 3.766-1.144 1.011-2.652 1.517-4.522 1.517-1.969 0-3.593-0.591-4.873-1.772-1.28-1.193-1.919-2.653-1.919-4.38s0.634-3.181 1.901-4.363c1.267-1.193 2.873-1.789 4.817-1.789 1.181 0 2.264 0.261 3.248 0.784 0.997 0.523 1.766 1.221 2.307 2.096l-0.867 0.477c-0.431-0.75-1.071-1.352-1.919-1.806-0.837-0.454-1.76-0.682-2.768-0.682-1.673 0-3.051 0.511-4.134 1.534-1.070 1.011-1.606 2.261-1.606 3.749s0.541 2.744 1.624 3.766c1.083 1.011 2.479 1.517 4.19 1.517 1.513 0 2.738-0.381 3.673-1.142s1.458-1.721 1.569-2.88h-5.482v-0.852h6.478z"></path>
<path fill="#fff" style="fill: var(--color1, #fff)" d="M26.753 29.823c-1.292 1.193-2.867 1.79-4.725 1.79s-3.433-0.596-4.725-1.79c-1.292-1.204-1.938-2.659-1.938-4.363s0.646-3.153 1.938-4.346c1.292-1.204 2.867-1.806 4.725-1.806s3.433 0.602 4.725 1.806c1.292 1.193 1.938 2.642 1.938 4.346s-0.646 3.158-1.938 4.363zM17.986 29.209c1.107 1.023 2.455 1.534 4.042 1.534s2.928-0.511 4.024-1.534c1.107-1.034 1.661-2.284 1.661-3.749s-0.554-2.71-1.661-3.732c-1.095-1.034-2.436-1.551-4.024-1.551s-2.935 0.517-4.042 1.551c-1.095 1.023-1.643 2.267-1.643 3.732s0.548 2.715 1.643 3.749z"></path>
<path fill="#fff" style="fill: var(--color1, #fff)" d="M41.821 29.823c-1.292 1.193-2.867 1.79-4.725 1.79s-3.433-0.596-4.725-1.79c-1.292-1.204-1.938-2.659-1.938-4.363s0.646-3.153 1.938-4.346c1.292-1.204 2.867-1.806 4.725-1.806s3.433 0.602 4.725 1.806c1.292 1.193 1.938 2.642 1.938 4.346s-0.646 3.158-1.938 4.363zM33.054 29.209c1.107 1.023 2.455 1.534 4.042 1.534s2.928-0.511 4.024-1.534c1.107-1.034 1.661-2.284 1.661-3.749s-0.554-2.71-1.661-3.732c-1.095-1.034-2.436-1.551-4.024-1.551s-2.934 0.517-4.042 1.551c-1.095 1.023-1.643 2.267-1.643 3.732s0.548 2.715 1.643 3.749z"></path>
<path fill="#fff" style="fill: var(--color1, #fff)" d="M58.532 25.869v0.46c0 1.488-0.572 2.744-1.716 3.766-1.144 1.011-2.652 1.517-4.522 1.517-1.969 0-3.593-0.591-4.873-1.772-1.28-1.193-1.92-2.653-1.92-4.38s0.634-3.181 1.901-4.363c1.267-1.193 2.873-1.789 4.817-1.789 1.181 0 2.264 0.261 3.248 0.784 0.997 0.523 1.766 1.221 2.307 2.096l-0.868 0.477c-0.431-0.75-1.070-1.352-1.919-1.806-0.837-0.454-1.76-0.682-2.768-0.682-1.673 0-3.052 0.511-4.134 1.534-1.071 1.011-1.606 2.261-1.606 3.749s0.541 2.744 1.624 3.766c1.083 1.011 2.479 1.517 4.19 1.517 1.513 0 2.738-0.381 3.673-1.142s1.458-1.721 1.569-2.88h-5.482v-0.852h6.478z"></path>
<path fill="#fff" style="fill: var(--color1, #fff)" d="M61.962 30.573h6.091v0.852h-7.069v-11.929h0.978v11.077z"></path>
<path fill="#fff" style="fill: var(--color1, #fff)" d="M71.064 30.573h6.46v0.852h-7.438v-11.929h7.346v0.852h-6.368v4.635h5.906v0.852h-5.906v4.738z"></path>
<path fill="#fff" style="fill: var(--color1, #fff)" d="M89.24 19.496c1.157 0 2.116 0.352 2.879 1.057s1.144 1.585 1.144 2.641c0 1.057-0.381 1.937-1.144 2.642-0.763 0.693-1.723 1.040-2.879 1.040h-3.414v4.55h-0.978v-11.929h4.393zM89.24 26.023c0.886 0 1.612-0.267 2.178-0.801 0.578-0.534 0.867-1.21 0.867-2.028 0-0.829-0.289-1.511-0.867-2.045-0.566-0.534-1.292-0.801-2.178-0.801h-3.414v5.675h3.414z"></path>
<path fill="#fff" style="fill: var(--color1, #fff)" d="M96.658 30.573h6.091v0.852h-7.069v-11.929h0.978v11.077z"></path>
<path fill="#fff" style="fill: var(--color1, #fff)" d="M113.836 31.425l-1.255-3.033h-6.478l-1.255 3.033h-1.034l5.020-11.929h1.034l5.001 11.929h-1.033zM106.471 27.539h5.758l-2.879-6.936-2.879 6.936z"></path>
<path fill="#fff" style="fill: var(--color1, #fff)" d="M124.062 19.496l-4.706 7.021v4.908h-0.978v-4.908l-4.707-7.021h1.108l4.097 6.152 4.079-6.152h1.107z"></path>
</symbol>
</defs>
</svg>
